<svg width="1024" height="768" xmlns="http://www.w3.org/2000/svg">
 <title/>

 <g>
  <title>background</title>
  <rect fill="#ffffff" id="canvas_background" height="770" width="1026" y="-1" x="-1"/>
 </g>
 <g>
  <title>Layer 1</title>
  <g id="icomoon-ignore"/>
  <path stroke="null" id="svg_1" d="m-10,-122l0,1024l1049,0l0,-1024l-1049,0zm823.628906,650c0,18 -8.195313,34 -24.585938,46l-2.048828,0l-245.859375,140c-8.195313,4 -18.439453,6 -26.634766,6c-10.244141,0 -18.439453,-2 -26.634766,-6l-243.810547,-138c-18.439453,-10 -28.683594,-28 -28.683594,-48l0,-276c0,-18 8.195313,-34 24.585938,-46l2.048828,0l245.859375,-140c16.390625,-6 36.878906,-6 53.269531,0l243.810547,138c18.439453,10 28.683594,28 28.683594,48l0,276zm-51.220703,-278c0,0 0,0 0,2l0,276c0,0 0,2 -4.097656,4l-239.712891,136c-2.048828,2 -6.146484,2 -6.146484,2l-245.859375,-140c0,0 0,0 0,-2l0,-276c0,0 0,-2 4.097656,-4l239.712891,-136c2.048828,-2 6.146484,-2 6.146484,-2l245.859375,140z" fill="#4cdb82"/>
 </g>
</svg>