<svg width="1024" height="768" xmlns="http://www.w3.org/2000/svg">
 <title/>

 <g>
  <title>background</title>
  <rect fill="#ffffff" id="canvas_background" height="770" width="1026" y="-1" x="-1"/>
 </g>
 <g>
  <title>Layer 1</title>
  <g id="icomoon-ignore"/>
  <path stroke="null" id="svg_1" d="m-3,-128l0,1024l1032,0l0,-1024l-1032,0zm745.78125,636c-2.015625,2 -4.03125,2 -8.0625,2c2.015625,4 2.015625,8 4.03125,12c16.125,88 2.015625,158 -40.3125,182c-10.078125,6 -24.1875,10 -38.296875,10c-36.28125,0 -82.640625,-22 -131.015625,-64c-6.046875,-4 -10.078125,-8 -14.109375,-12c-4.03125,4 -8.0625,6 -10.078125,8c-68.53125,60 -137.0625,82 -179.390625,58c-40.3125,-24 -54.421875,-88 -38.296875,-174c2.015625,-6 4.03125,-12 4.03125,-18c-4.03125,-2 -8.0625,-2 -12.09375,-4c-84.65625,-28 -139.078125,-76 -139.078125,-124c0,-46 50.390625,-92 133.03125,-120c6.046875,-2 12.09375,-4 18.140625,-6c0,-6 -2.015625,-12 -2.015625,-18c-18.140625,-86 -4.03125,-152 36.28125,-176c42.328125,-24 110.859375,-2 181.40625,62c2.015625,2 4.03125,4 6.046875,4c4.03125,-2 8.0625,-6 12.09375,-10c68.53125,-58 133.03125,-80 173.34375,-56c42.328125,24 56.4375,94 38.296875,186c-2.015625,2 -2.015625,6 -2.015625,8c4.03125,2 10.078125,4 16.125,6l0,0c84.65625,28 135.046875,72 135.046875,120s-54.421875,94 -143.109375,124zm-66.515625,-32c-12.09375,4 -26.203125,6 -40.3125,8c4.03125,-8 8.0625,-14 12.09375,-22l0,0c6.046875,-8 10.078125,-16 14.109375,-24c4.03125,14 10.078125,26 14.109375,38zm-28.21875,-170c-4.03125,-8 -8.0625,-14 -12.09375,-22c14.109375,2 26.203125,6 38.296875,8c-4.03125,12 -8.0625,24 -12.09375,36c-4.03125,-8 -10.078125,-14 -14.109375,-22zm-195.515625,184c38.296875,2 82.640625,2 122.953125,0c10.078125,-18 22.171875,-34 32.25,-52s20.15625,-36 28.21875,-54c-8.0625,-18 -18.140625,-36 -28.21875,-54s-22.171875,-36 -32.25,-52c-40.3125,-2 -82.640625,-2 -124.96875,0c-10.078125,16 -22.171875,34 -32.25,52s-20.15625,36 -28.21875,54c8.0625,18 18.140625,36 28.21875,54s22.171875,36 34.265625,52zm60.46875,-172c36.28125,0 64.5,30 64.5,66s-28.21875,64 -64.5,64c-36.28125,0 -64.5,-28 -64.5,-64s28.21875,-66 64.5,-66zm88.6875,-86c-18.140625,-24 -36.28125,-46 -54.421875,-68c4.03125,-2 6.046875,-6 10.078125,-8c54.421875,-46 98.765625,-62 116.90625,-52c20.15625,12 30.234375,62 14.109375,136c0,2 0,4 0,6c-28.21875,-6 -56.4375,-10 -86.671875,-14zm-223.734375,74c-4.03125,8 -8.0625,14 -12.09375,22c-6.046875,-12 -10.078125,-24 -14.109375,-36c12.09375,-2 24.1875,-6 38.296875,-8c-4.03125,8 -8.0625,16 -12.09375,22zm-26.203125,172c4.03125,-12 8.0625,-26 14.109375,-38c4.03125,8 8.0625,14 12.09375,22s8.0625,16 12.09375,22c-12.09375,-2 -26.203125,-4 -38.296875,-6zm338.625,54c8.0625,34 10.078125,66 4.03125,92c-4.03125,20 -10.078125,34 -20.15625,38c-16.125,12 -62.484375,-2 -114.890625,-48c-4.03125,-2 -8.0625,-6 -12.09375,-10c18.140625,-20 36.28125,-44 54.421875,-68c30.234375,-4 60.46875,-8 86.671875,-14c2.015625,4 2.015625,6 2.015625,10zm147.140625,-148c0,22 -38.296875,56 -110.859375,80c-2.015625,0 -2.015625,0 -4.03125,0c-8.0625,-26 -20.15625,-52 -32.25,-80c12.09375,-28 22.171875,-54 30.234375,-80c6.046875,2 10.078125,2 14.109375,4c66.515625,24 102.796875,56 102.796875,76zm-348.703125,156c16.125,0 34.265625,0 50.390625,0c-8.0625,10 -16.125,20 -24.1875,30c-10.078125,-10 -18.140625,-20 -26.203125,-30zm-62.484375,-4c16.125,24 36.28125,48 54.421875,68c-2.015625,2 -4.03125,4 -8.0625,6c-26.203125,24 -54.421875,42 -78.609375,50c-18.140625,6 -34.265625,8 -44.34375,2c-16.125,-10 -28.21875,-54 -14.109375,-122c0,-6 2.015625,-12 2.015625,-16c28.21875,6 56.4375,10 88.6875,12zm-90.703125,-304c-14.109375,-70 -4.03125,-116 14.109375,-126c18.140625,-12 68.53125,4 124.96875,54c2.015625,2 4.03125,4 6.046875,4c-20.15625,22 -38.296875,44 -56.4375,68c-30.234375,4 -58.453125,8 -84.65625,14c-2.015625,-4 -4.03125,-10 -4.03125,-14zm177.375,-4c-8.0625,0 -16.125,0 -24.1875,0c8.0625,-10 16.125,-20 24.1875,-30c8.0625,10 18.140625,20 26.203125,30c-10.078125,0 -18.140625,0 -26.203125,0zm-175.359375,156c-14.109375,28 -24.1875,56 -32.25,82c-4.03125,0 -8.0625,-2 -10.078125,-2c-34.265625,-12 -62.484375,-28 -82.640625,-44c-16.125,-14 -24.1875,-26 -24.1875,-36c0,-20 34.265625,-52 100.78125,-76c4.03125,-2 10.078125,-4 16.125,-4c8.0625,26 18.140625,52 32.25,80z" fill="#46b3e9"/>
 </g>
</svg>